<svg id="_2" data-name="2" xmlns="http://www.w3.org/2000/svg" viewBox="0 0 512 512"><defs><style>.cls-1{fill:#2094ac;}</style></defs><path class="cls-1" d="M215.32,236.22a14.31,14.31,0,1,1,14.31-14.31A14.33,14.33,0,0,1,215.32,236.22Z"/><path class="cls-1" d="M215.32,300.37a14.32,14.32,0,1,1,14.31-14.32A14.33,14.33,0,0,1,215.32,300.37Z"/><path class="cls-1" d="M215.32,364.51a14.31,14.31,0,1,1,14.31-14.31A14.33,14.33,0,0,1,215.32,364.51Z"/><path class="cls-1" d="M373.52,233.6H258.7a11,11,0,0,1,0-22H373.52a11,11,0,0,1,0,22Z"/><path class="cls-1" d="M373.52,297.4H258.7a11,11,0,1,1,0-22H373.52a11,11,0,0,1,0,22Z"/><path class="cls-1" d="M373.52,361.2H258.7a11,11,0,0,1,0-22H373.52a11,11,0,0,1,0,22Z"/><path class="cls-1" d="M381.79,105.85V62.57a30.06,30.06,0,0,0-30-30H105.32a30.06,30.06,0,0,0-30,30V372.62a30.07,30.07,0,0,0,30,30h35v35a30.07,30.07,0,0,0,30,30H416.76a30.07,30.07,0,0,0,30-30V171.37Zm.4,31.63L408.51,164H382.19ZM105.32,380.66a8,8,0,0,1-8-8v-310a8,8,0,0,1,8-8H351.76a8,8,0,0,1,8,8v35H170.32a30.06,30.06,0,0,0-30,30V380.66Zm319.47,57a8,8,0,0,1-8,8H170.32a8,8,0,0,1-8-8v-310a8,8,0,0,1,8-8H360.19V186h64.6Z"/></svg>