<svg xmlns="http://www.w3.org/2000/svg" viewBox="0 0 512 512"><path d="M453.5 429.8c-2-7.5-4.8-14.2-8.2-20.2-6-10.5-14.1-18.7-23-25.2-6.7-4.9-13.8-8.9-21-12.3-10.9-5.2-22-9.1-32.3-12.9-10.3-3.8-19.8-7.5-27.2-11.8l-.8-.4c-2.7-1.6-5.1-3.2-7.2-5-3.1-2.6-5.6-5.4-7.3-8.5-1.8-3.1-2.9-6.6-3.4-11-.3-3.1-.5-2.9-.5-6 0-9.2 1.3-18.2 2.8-25.7 4.6-5.2 8.8-11.4 12.8-18.9 4-7.5 7.8-16.2 11.6-26.6 2.4-1.1 4.9-2.4 7.3-4.1 5.5-3.7 10.6-8.8 15-15.6 4.3-6.8 7.8-15.3 10.2-25.8.7-2.9 1-5.8 1-8.6 0-5.9-1.4-11.6-3.8-16.7-1.6-3.5-3.7-6.7-6.1-9.6 1.2-4.6 2.8-10.7 4.1-17.9 1.8-10 3.4-22 3.4-34.6 0-8.2-.6-16.6-2.3-24.8-1.3-6.2-3.1-12.4-5.6-18.3-3.9-8.9-9.5-17.2-17.3-24.2-7.2-6.4-16.3-11.5-27.2-14.8-3.9-4.6-7.7-8.6-11.7-11.9-3.4-2.9-6.9-5.3-10.5-7.3-5.4-3-11-5-16.8-6.2-5.7-1.2-11.6-1.7-17.6-1.7-8.4 0-17.2.8-26.9 1.8-3.7.4-6.8.8-9.4 1.3-4 .7-7 1.5-9.4 1.9-1.2.2-2.2.4-3.3.5-1 .2-2 .2-3.2.2-1.5 0-3.3-.1-5.6-.5-7.1-1-13.6-2.6-18.6-4.2-2.5-.8-4.8-1.5-6.5-2.2-.8-.3-1.6-.6-2.2-.9-.6-.2-1-.5-1.3-.6-.8-.4-1.5-.6-2.2-.8-.7.3-1.3.3-1.8.3-1.1 0-1.8.2-2.5.3-.6.2-1.1.3-1.5.5-.8.3-1.5.7-2.1 1.1-1.1.7-2.2 1.4-3.4 2.3-2 1.6-4.2 3.5-6.6 5.8-3.5 3.4-7.3 7.5-10.8 12-1.7 2.2-3.3 4.6-4.8 7-1.4 2.4-2.7 4.9-3.7 7.5-5 12.9-8.3 24.8-10.3 35.8-2 11-2.8 21.1-2.8 30.3 0 15.1 2.1 27.9 4.1 38.7 0 .5 0 1 .1 1.5 0 1 .2 2.1.3 3.2.2 1.6.4 3.3.5 4.7.1.7.1 1.3.2 1.8V154.2l2 8.8c-2.9 3.1-5.3 6.6-7.3 10.5-2.7 5.3-4.3 11.4-4.3 17.7 0 2.8.3 5.7 1 8.6 1.6 7 3.6 13.1 6.1 18.4 3.7 8 8.4 14.2 13.7 18.8 4 3.6 8.4 6.3 12.6 8.2 3.8 10.3 7.6 19.1 11.6 26.5 4 7.5 8.2 13.7 12.8 18.9 1.5 7.5 2.8 16.5 2.8 25.7 0 3.1-.1 2.9-.5 6-.3 3-1 5.6-1.9 7.9-1.4 3.5-3.5 6.5-6.3 9.3-2.8 2.8-6.4 5.4-10.6 7.8l-3.3 1.8c-3.5 1.8-7.4 3.5-11.6 5.2-9.5 3.9-20.4 7.5-31.5 11.9-8.3 3.3-16.7 7.1-24.7 11.8-6 3.5-11.8 7.6-17.1 12.5-8 7.3-14.8 16.3-19.5 27.6S55 442.8 55 458.6c0 2.2.5 4.3 1.2 6.3.7 1.8 1.7 3.5 2.9 5.1 2.2 3 5 5.6 8.5 8.2 6 4.5 14.1 8.6 24.5 12.6 15.6 5.9 36.6 11.2 63.6 15S216 512 256 512c34.7 0 64.2-1.8 89.1-4.8 18.7-2.2 34.7-5.2 48.3-8.5 10.2-2.5 19.1-5.2 26.7-8.1 5.7-2.1 10.7-4.4 15-6.7 3.3-1.7 6.2-3.5 8.7-5.3 3.8-2.8 6.9-5.6 9.2-8.8 1.2-1.6 2.1-3.3 2.8-5.2s1.1-3.9 1.1-6c.1-10.7-1.1-20.3-3.4-28.8zM183.1 87.2c45.2 10 133.6-9.2 133.6-9.2s1 22 16 42c8 10.6 14 29.2 17.8 43.6-.1 0-.3 0-.4-.1-2.2-.3-2.6-1.7-2.9-2.9-.6-2.7-3.1-3.5-7.1-4.1-7.8-1-19.3-1.7-32.2-1.1-38.5 1.9-35.7 5.4-50.8 5.4-15.1 0-12.3-3.5-50.8-5.4-13-.6-24.5 0-32.2 1.1-4 .5-6.6 1.4-7.1 4.1-.3 1.2-.7 2.6-2.9 2.9h-.1c1.3-17 17.3-38.4 19.1-76.3zM339.6 184c0 .2-.2 22.3-15.2 29.9-5.1 2.6-11.5 4-18 4-6.9 0-13.2-1.6-18.2-4.5-5.5-3.2-9.3-8.1-11.1-14.3-.4-1.4-.8-2.9-1.2-4.3-1.2-4.3-4.4-16.2 2.4-21.5 4.4-3.4 18-5.6 31-5.6 11.8 0 23.9 1.6 27.4 5.3 2.3 2.4 3.2 6.8 2.9 11zm-101.2 10.8c-.4 1.4-.8 2.9-1.2 4.3-1.8 6.2-5.6 11.1-11.1 14.3-5 2.9-11.3 4.5-18.2 4.5-6.5 0-12.9-1.4-18-4-15-7.6-15.2-29.7-15.2-29.9-.3-4.3.6-8.6 2.9-11 3.5-3.7 15.6-5.3 27.4-5.3 13 0 26.6 2.2 31 5.6 6.8 5.2 3.6 17.1 2.4 21.5zm1 235.9l-53.3-73.5c.7-.5 1.4-1 2-1.5 2.9-2.3 5.6-5 8-7.9l43 20-9.2 15.3 14.2 15.1-4.7 32.5zm-37.2-93.2c1.7-4 2.9-8.5 3.4-13.3.4-3.7.5-4.1.5-7.7 0-11.8-1.8-22.8-3.6-31.4l-.5-2.3-1.6-1.7c-4.1-4.3-8-9.8-11.9-17.1-3.9-7.3-7.8-16.4-11.9-27.7l-1.3-3.7-3.7-1.3c-2.5-.9-5-2.2-7.4-3.8-3.6-2.4-7-5.7-10.2-10.7-3.1-5-6-11.6-8-20.5-.4-1.7-.6-3.3-.6-4.9 0-3.6.9-7 2.5-10.2 1.3-2.7 3.2-5.3 5.5-7.6 3.8 5.8 7 10.4 8.2 11.6 1.2 1.2 2.1 1.1 2.7 0 .7 8.2 4.1 26.7 20.2 35.3 20.3 10.8 50.5 6.7 60.8-17.2 4.7-10.8 4.7-21.4 11.7-21.4s7.1 10.6 11.7 21.4c10.3 24 40.5 28 60.8 17.2S350 183 350 181.2c0-1.1 1.1-1.9 2.7-1.9.6 0 1.1-.2 1.5-.5.7 3.2 1 5.1 1 5.1s2-3.7 4.8-8.6c1.8 2 3.2 4.2 4.3 6.5 1.4 3.1 2.2 6.3 2.2 9.6 0 1.6-.2 3.2-.6 5-1.3 6-3 10.9-5 15-2.9 6.1-6.2 10.4-9.6 13.5-3.5 3.1-7.2 5.1-11 6.5l-3.7 1.3-1.3 3.7c-4 11.4-7.9 20.5-11.9 27.8-3.9 7.3-7.8 12.8-11.9 17.1l-1.6 1.7-.5 2.3c-1.9 8.6-3.6 19.6-3.6 31.4 0 3.6.2 4 .5 7.7.5 4.3 1.5 8.4 2.9 12.2.1.2.2.3.2.5l-50.9 26.7-56.3-26.3zm74.6 96.7l-5.2-36.2 14.2-15.1-9.2-15.4 38.9-20.5c1.1 1.4 2.2 2.7 3.4 3.9 2.2 2.3 4.6 4.3 7.2 6.2l-49.3 77.1z" fill="#2094ac"/></svg>