<svg version="1.1" id="_x32_" xmlns="http://www.w3.org/2000/svg" x="0" y="0" viewBox="0 0 512 512" xml:space="preserve"><style>.st0{fill:#2094ac}</style><path class="st0" d="M469 118.4L446.4 83c1-.8 2.1-1.6 3-2.6 7.3-7.3 11.9-17.5 11.9-28.7V40.6c0-11.1-4.5-21.3-11.8-28.6l.3.3-.4-.4C442.2 4.6 432.1.1 421.1 0h-.2H285.5h-.1c-11.1 0-21.3 4.5-28.6 11.9l.3-.3-.3.3c-7.3 7.3-11.9 17.5-11.9 28.7v11.2c0 11.2 4.6 21.4 11.9 28.7.9 1 2 1.8 3 2.6l-22.6 35.4c-7.8 12.3-14 25.4-18.4 39.1 12.1-1.5 24.2-.1 34.9 4.2 3.3-8.7 7.4-17 12.5-24.9l37.4-58.5c2.6-4.1 2.8-9.2.5-13.4-2.3-4.2-6.7-6.8-11.6-6.8h-6.9c-1.8 0-3.3-.7-4.4-1.8-1.1-1.2-1.8-2.6-1.8-4.4V40.6c0-1.8.7-3.2 1.8-4.4 1.2-1.2 2.7-1.8 4.4-1.8h135.2c1.8 0 3.2.7 4.4 1.8 1.2 1.2 1.8 2.7 1.8 4.4v11.2c0 1.8-.7 3.2-1.8 4.4-1.2 1.2-2.6 1.8-4.4 1.8h-6.9c-4.8 0-9.2 2.6-11.6 6.8-2.3 4.2-2.2 9.4.5 13.4l37.4 58.5c13.8 21.7 21.2 46.9 21.2 72.7v217c0 14.2-5.7 26.9-15 36.2-9.3 9.3-22 15-36.2 15H296c-8.3 0-16.2-2-23.1-5.5-7.4 9.5-15.7 17.9-24.8 25.1 13.7 9.3 30.2 14.7 47.9 14.7h114.1c47.2 0 85.4-38.3 85.5-85.5v-217c0-32.1-9.2-63.8-26.6-91z"/><path class="st0" d="M410.1 440.7c4.9 0 8.2-2.3 10-4.1 1.9-1.9 4.2-5.2 4.2-10.1V226.3c-69 38.4-72.4-33.6-142.5 8.2V275c1.5 1.6 2.9 3.2 4.4 4.9 30.2 35.3 33.4 101.6 7.6 157.7-.4.9-.8 1.8-1.3 2.7 1 .3 2.2.4 3.4.4h114.2z"/><g><path class="st0" d="M255.9 186c-14.2-11.3-37-12.4-56.8-1-19.7 11.3-30.4 31.5-27.8 49.5 14.2 11.3 37 12.4 56.8 1 19.7-11.4 30.3-31.5 27.8-49.5z"/><path class="st0" d="M271.1 292.9c-37.6-43.9-79.2-26.3-104.8-18.6v-35.5c0-7.6-6.2-13.8-13.8-13.8-7.6 0-13.8 6.2-13.8 13.8v35.8c-25.5-7.5-67.8-26.4-106 18.2-46.9 54.8-13.7 217 119.2 217S318 347.6 271.1 292.9z"/></g></svg>