<svg version="1.1" id="_x32_" xmlns="http://www.w3.org/2000/svg" x="0" y="0" viewBox="0 0 512 512" xml:space="preserve"><style>.st0{fill:#2094ac}</style><path class="st0" d="M503.5 264.3c-3.1-5.2-7.2-10.1-12.4-14.3-5.2-4.2-11.7-7.6-19.2-9.7-5.8-1.7-12.1 1-14 6-1.9 5 1.2 10.4 7 12.1 4.5 1.3 8.1 3.2 11.2 5.7 4.6 3.7 8.1 8.6 10.4 14.4 2.3 5.7 3.4 12.2 3.4 18.2 0 3.6-.4 7.1-1 10.1-.7 3-1.6 5.6-2.5 7.4-8.5 16-23.8 29.7-45.6 39.7-21.8 10-50 16-83.6 16-2.6 0-5.2 0-7.9-.1-23.8-.6-45.5-5.3-63.7-11.5-18.3-6.2-33.1-13.8-42.8-20.1-6.7-4.3-12.2-7.9-17.8-10.6-2.8-1.4-5.6-2.5-8.6-3.4-3-.9-6.3-1.4-9.6-1.4-6.5 0-12.6 1.7-19 4.4-7.2 3.1-17.2 5.7-27.7 7.6-10.5 1.8-21.6 2.8-31.1 2.8-4.8 0-9.1-.3-12.7-.7-27.2-3.7-43.1-9-53.5-14.6-5.2-2.8-9.2-5.7-12.8-8.8-3.6-3.1-6.8-6.4-10.3-9.9-11.9-12.2-17.4-26.1-17.4-38.8 0-8.1 2.2-15.7 6.5-22.2 4.2-6.5 10.4-12 18.8-15.9 5.4-2.5 7.4-8.3 4.5-13-2.9-4.7-9.7-6.4-15-3.9-12 5.6-21.4 13.8-27.5 23.4-6.5 9.5-9.6 20.4-9.6 31.6 0 17.5 7.5 35.7 22.6 51.1 3.4 3.5 7 7.3 11.6 11.2 6.8 5.9 15.7 11.8 28.2 16.7 12.5 4.9 28.6 9 50.3 12 5 .7 10.4 1 16.1 1 11.2 0 23.5-1.2 35.5-3.2 11.9-2.1 23.4-5.1 33.1-9.1 4.5-1.9 7.6-2.5 9.3-2.5.8 0 1.6.1 2.7.4 1.7.5 4.3 1.6 7.6 3.5s7.4 4.5 12.4 7.7c11.4 7.4 27.7 15.8 48 22.6 20.3 6.9 44.4 12.1 71.2 12.8 2.9.1 5.7.1 8.6.1 36.6 0 68.4-6.5 93.9-18.2 25.5-11.6 44.7-28.5 55.4-48.7 1.9-3.6 3.2-7.6 4.2-11.8.9-4.3 1.4-8.8 1.4-13.6-.1-10.6-2.5-22.1-8.6-32.5z"/><path class="st0" d="M66.1 288c17.7 14.3 63.1 38.9 121.6 14.3 50.7-21.4 58.3 35.8 139.3 38 88.7 2.4 148.2-41.5 124.1-71.2-14.5-17.9-73.5-89.1-103.9-122.3-30.4-33.2-65.9-27.3-81-8.3-9.7 12.2-69.7 86.7-69.7 86.7s-.2-17.7 2.5-30.9c0 0 .9-.8-16.5-17.8-27.9-27.3-50.7-14.3-68.4 2.4-15.4 14.4-45.6 46.3-55.7 58.2-11.1 12.9-18.2 30.1 7.7 50.9z"/></svg>